<svg width="183" height="107" viewBox="0 0 183 107" fill="none" xmlns="http://www.w3.org/2000/svg">
<g filter="url(#filter0_f_9_156)">
<path d="M49.9614 60.4169C68.2619 60.4169 83.0973 51.2176 83.0973 39.8696C83.0973 28.5216 68.2619 19.3222 49.9614 19.3222C31.6609 19.3222 16.8254 28.5216 16.8254 39.8696C16.8254 51.2176 31.6609 60.4169 49.9614 60.4169Z" fill="#FA9E42"/>
<g filter="url(#filter1_f_9_156)">
<path d="M47.5669 36.9476C58.5797 33.3388 64.7393 27.1981 61.3249 23.2319C57.9105 19.2658 46.2149 18.9762 35.2021 22.585C24.1893 26.1939 18.0297 32.3346 21.4441 36.3007C24.8585 40.2668 36.5541 40.5564 47.5669 36.9476Z" fill="#F8E36F"/>
</g>
<path d="M56.2965 58.2437C56.5374 58.2474 58.9817 63.4839 58.9817 65.5187C58.9817 67.5535 57.7794 69.2033 56.2965 69.2033C54.8136 69.2033 53.6113 67.5537 53.6113 65.5189C53.6113 63.4841 56.0556 58.2402 56.2965 58.2437Z" fill="#42A0F0"/>
<path d="M54.9995 66.1413C55.3918 66.2153 55.9085 65.8743 56.1536 65.3797C56.3987 64.8851 56.2794 64.4242 55.8871 64.3502C55.4948 64.2762 54.9781 64.6172 54.733 65.1118C54.4879 65.6064 54.6072 66.0673 54.9995 66.1413Z" fill="white"/>
<path d="M74.9293 58.2437C75.1702 58.2474 77.6145 63.4839 77.6145 65.5187C77.6145 67.5535 76.4122 69.2033 74.9293 69.2033C73.4465 69.2033 72.2441 67.5537 72.2441 65.5189C72.2441 63.4841 74.6885 58.2402 74.9293 58.2437Z" fill="#42A0F0"/>
<path d="M73.6323 66.1413C74.0246 66.2153 74.5414 65.8743 74.7864 65.3797C75.0315 64.8851 74.9122 64.4242 74.5199 64.3502C74.1276 64.2762 73.6109 64.6172 73.3658 65.1118C73.1207 65.6064 73.24 66.0673 73.6323 66.1413Z" fill="white"/>
<path d="M94.9216 58.2437C95.1625 58.2474 97.6068 63.4839 97.6068 65.5187C97.6068 67.5535 96.4045 69.2033 94.9216 69.2033C93.4388 69.2033 92.2365 67.5537 92.2365 65.5189C92.2365 63.4841 94.6808 58.2402 94.9216 58.2437Z" fill="#42A0F0"/>
<path d="M93.6246 66.1413C94.0169 66.2153 94.5337 65.8743 94.7788 65.3797C95.0238 64.8851 94.9045 64.4242 94.5122 64.3502C94.1199 64.2762 93.6032 64.6172 93.3581 65.1118C93.113 65.6064 93.2323 66.0673 93.6246 66.1413Z" fill="white"/>
<path d="M113.386 57.6212C113.627 57.6249 116.071 62.8614 116.071 64.8962C116.071 66.931 114.869 68.5808 113.386 68.5808C111.903 68.5808 110.701 66.9312 110.701 64.8964C110.701 62.8616 113.145 57.6177 113.386 57.6212Z" fill="#42A0F0"/>
<path d="M112.089 65.5188C112.481 65.5928 112.998 65.2518 113.243 64.7572C113.488 64.2626 113.369 63.8017 112.976 63.7277C112.584 63.6537 112.067 63.9947 111.822 64.4893C111.577 64.9839 111.697 65.4448 112.089 65.5188Z" fill="white"/>
<path d="M84.3374 72.1498C84.5783 72.1535 87.0226 77.39 87.0226 79.4248C87.0226 81.4596 85.8203 83.1094 84.3374 83.1094C82.8545 83.1094 81.6522 81.4598 81.6522 79.425C81.6522 77.3902 84.0965 72.1463 84.3374 72.1498Z" fill="#42A0F0"/>
<path d="M83.0404 80.0474C83.4327 80.1214 83.9494 79.7804 84.1945 79.2858C84.4396 78.7912 84.3203 78.3303 83.928 78.2563C83.5357 78.1823 83.019 78.5233 82.7739 79.0179C82.5288 79.5125 82.6481 79.9734 83.0404 80.0474Z" fill="white"/>
<path d="M104.329 72.1498C104.57 72.1535 107.014 77.39 107.014 79.4248C107.014 81.4596 105.812 83.1094 104.329 83.1094C102.846 83.1094 101.644 81.4598 101.644 79.425C101.644 77.3902 104.088 72.1463 104.329 72.1498Z" fill="#42A0F0"/>
<path d="M103.032 80.0474C103.424 80.1214 103.941 79.7804 104.186 79.2858C104.431 78.7912 104.312 78.3303 103.919 78.2563C103.527 78.1823 103.01 78.5233 102.765 79.0179C102.52 79.5125 102.64 79.9734 103.032 80.0474Z" fill="white"/>
<path d="M125.496 72.1498C125.737 72.1535 128.181 77.39 128.181 79.4248C128.181 81.4596 126.979 83.1094 125.496 83.1094C124.013 83.1094 122.811 81.4598 122.811 79.425C122.811 77.3902 125.255 72.1463 125.496 72.1498Z" fill="#42A0F0"/>
<path d="M124.199 80.0474C124.592 80.1214 125.108 79.7804 125.353 79.2858C125.598 78.7912 125.479 78.3303 125.087 78.2563C124.694 78.1823 124.178 78.5233 123.933 79.0179C123.688 79.5125 123.807 79.9734 124.199 80.0474Z" fill="white"/>
<path d="M64.3469 72.7723C64.5878 72.776 67.0321 78.0125 67.0321 80.0473C67.0321 82.0821 65.8298 83.7319 64.3469 83.7319C62.8641 83.7319 61.6617 82.0823 61.6617 80.0475C61.6617 78.0127 64.1061 72.7688 64.3469 72.7723Z" fill="#42A0F0"/>
<path d="M63.0499 80.6699C63.4422 80.7439 63.959 80.4029 64.204 79.9083C64.4491 79.4137 64.3298 78.9528 63.9375 78.8788C63.5452 78.8048 63.0285 79.1458 62.7834 79.6404C62.5383 80.135 62.6576 80.5959 63.0499 80.6699Z" fill="white"/>
<path d="M45.5306 72.1498C45.7715 72.1535 48.2158 77.39 48.2158 79.4248C48.2158 81.4596 47.0135 83.1094 45.5306 83.1094C44.0478 83.1094 42.8455 81.4598 42.8455 79.425C42.8455 77.3902 45.2898 72.1463 45.5306 72.1498Z" fill="#42A0F0"/>
<path d="M44.2337 80.0474C44.626 80.1214 45.1427 79.7804 45.3878 79.2858C45.6329 78.7912 45.5135 78.3303 45.1212 78.2563C44.7289 78.1823 44.2122 78.5233 43.9671 79.0179C43.722 79.5125 43.8414 79.9734 44.2337 80.0474Z" fill="white"/>
<path d="M56.2965 83.1498C56.5374 83.1535 58.9817 88.39 58.9817 90.4248C58.9817 92.4596 57.7794 94.1094 56.2965 94.1094C54.8136 94.1094 53.6113 92.4598 53.6113 90.425C53.6113 88.3902 56.0556 83.1463 56.2965 83.1498Z" fill="#42A0F0"/>
<path d="M54.9995 91.0474C55.3918 91.1214 55.9085 90.7805 56.1536 90.2859C56.3987 89.7913 56.2794 89.3303 55.8871 89.2563C55.4948 89.1823 54.9781 89.5233 54.733 90.0179C54.4879 90.5125 54.6072 90.9734 54.9995 91.0474Z" fill="white"/>
<path d="M74.9293 83.1498C75.1702 83.1535 77.6145 88.39 77.6145 90.4248C77.6145 92.4596 76.4122 94.1094 74.9293 94.1094C73.4465 94.1094 72.2441 92.4598 72.2441 90.425C72.2441 88.3902 74.6885 83.1463 74.9293 83.1498Z" fill="#42A0F0"/>
<path d="M73.6323 91.0474C74.0246 91.1214 74.5414 90.7805 74.7864 90.2859C75.0315 89.7913 74.9122 89.3303 74.5199 89.2563C74.1276 89.1823 73.6109 89.5233 73.3658 90.0179C73.1207 90.5125 73.24 90.9734 73.6323 91.0474Z" fill="white"/>
<path d="M94.9216 83.1498C95.1625 83.1535 97.6068 88.39 97.6068 90.4248C97.6068 92.4596 96.4045 94.1094 94.9216 94.1094C93.4388 94.1094 92.2365 92.4598 92.2365 90.425C92.2365 88.3902 94.6808 83.1463 94.9216 83.1498Z" fill="#42A0F0"/>
<path d="M93.6246 91.0474C94.0169 91.1214 94.5337 90.7805 94.7788 90.2859C95.0238 89.7913 94.9045 89.3303 94.5122 89.2563C94.1199 89.1823 93.6032 89.5233 93.3581 90.0179C93.113 90.5125 93.2323 90.9734 93.6246 91.0474Z" fill="white"/>
<path d="M113.386 83.1498C113.627 83.1535 116.071 88.39 116.071 90.4248C116.071 92.4596 114.869 94.1094 113.386 94.1094C111.903 94.1094 110.701 92.4598 110.701 90.425C110.701 88.3902 113.145 83.1463 113.386 83.1498Z" fill="#42A0F0"/>
<path d="M112.089 91.0474C112.481 91.1214 112.998 90.7805 113.243 90.2859C113.488 89.7913 113.369 89.3303 112.976 89.2563C112.584 89.1823 112.067 89.5233 111.822 90.0179C111.577 90.5125 111.697 90.9734 112.089 91.0474Z" fill="white"/>
<g filter="url(#filter2_d_9_156)">
<path d="M112.262 74.3593H47.8637C41.6165 74.3564 35.6133 72.8626 31.1109 70.1907C26.6085 67.5188 23.9559 63.8759 23.7085 60.0246C23.461 56.1734 25.6379 52.4124 29.7834 49.529C30.7628 48.8477 31.8342 48.228 32.9814 47.6746C40.1333 44.225 47.3733 38.5679 54.0453 34.2629V34.2629C58.4222 31.4389 64.1239 29.5325 70.3485 28.8119C76.5731 28.0914 83.0071 28.593 88.7455 30.2462C90.1846 30.6608 91.5618 31.1426 92.8665 31.6855C99.4348 34.4188 106.645 36.8041 113.756 37.0229C115.851 37.0873 117.94 37.2862 119.988 37.6202C125.806 38.569 131.034 40.5655 135.006 43.355C138.977 46.1446 141.512 49.6008 142.286 53.2827C142.939 56.384 142.317 59.5271 140.5 62.4269C139.805 63.5371 139.086 64.6413 138.3 65.6901C136.575 67.9944 133.918 69.9988 130.565 71.5033C126.428 73.3594 121.445 74.3593 116.33 74.3593H112.262Z" fill="url(#paint0_linear_9_156)"/>
<path d="M116.33 74.1516C118.927 74.1516 121.48 73.8958 123.919 73.3912C126.278 72.9033 128.492 72.1913 130.5 71.2749C132.485 70.3691 134.226 69.284 135.672 68.0499C137.137 66.8003 138.268 65.4257 139.034 63.9642V63.9642C139.039 63.9543 139.045 63.9448 139.052 63.9361L139.053 63.9352C140.071 62.68 140.855 61.3522 141.383 59.9887C141.927 58.5856 142.202 57.1358 142.202 55.6798C142.202 54.4263 141.997 53.1738 141.594 51.9568C141.2 50.7709 140.614 49.6045 139.849 48.4898C139.099 47.3953 138.17 46.3396 137.089 45.3521C136.018 44.374 134.788 43.4542 133.433 42.6182C132.078 41.7823 130.587 41.0233 129.002 40.3625C127.401 39.6954 125.69 39.1224 123.916 38.6594C122.109 38.188 120.219 37.8259 118.296 37.5832C116.324 37.3342 114.294 37.2079 112.262 37.2079C108.898 37.2079 105.596 37.5495 102.448 38.2231L102.382 38.2371C102.259 38.2636 102.13 38.2223 102.045 38.1287V38.1287C99.4825 35.3181 95.7559 32.9577 91.2674 31.3028C88.9975 30.4658 86.5588 29.8191 84.0191 29.3804C81.399 28.9279 78.6775 28.6985 75.9302 28.6985C72.2348 28.6985 68.6276 29.1088 65.2087 29.9181C61.9059 30.6998 58.876 31.8291 56.2033 33.2745C53.546 34.7116 51.3407 36.4073 49.6488 38.3144C47.9154 40.2683 46.7824 42.3775 46.2814 44.5832V44.5832C46.2592 44.6808 46.1747 44.7517 46.0748 44.7565L45.9745 44.7613C42.9609 44.9069 40.0615 45.3964 37.3567 46.2163C34.7286 47.013 32.3818 48.0905 30.3814 49.419C26.2712 52.1488 24.0075 55.7055 24.0075 59.4338C24.0075 61.4207 24.6382 63.3482 25.8821 65.1625C26.4799 66.0346 27.2199 66.8757 28.0815 67.6625C28.9349 68.4419 29.9151 69.1748 30.9947 69.8409C32.0742 70.5069 33.2622 71.1116 34.5254 71.6382C35.8007 72.1697 37.164 72.6263 38.5775 72.9951C41.5183 73.7625 44.6424 74.1516 47.863 74.1516H112.262H116.33ZM116.33 74.3592H112.262H47.863C34.5023 74.3592 23.6711 67.6768 23.6711 59.4338C23.6711 55.1098 26.6513 51.2152 31.4136 48.4894C39.2066 44.0289 47.7272 37.7495 55.5563 33.3528C60.9349 30.3323 68.084 28.4909 75.9302 28.4909C82.8073 28.4909 89.1488 29.9055 94.232 32.2887C99.8364 34.9163 106.072 37.0003 112.262 37.0003V37.0003C128.983 37.0003 142.538 45.3635 142.538 55.6798C142.538 58.0511 141.822 60.3195 140.516 62.4067C139.812 63.5317 139.083 64.6499 138.285 65.7105C134.443 70.8176 126.057 74.3592 116.33 74.3592Z" fill="white" fill-opacity="0.5"/>
</g>
</g>
<defs>
<filter id="filter0_f_9_156" x="12.8254" y="15.3222" width="133.713" height="82.7872" filterUnits="userSpaceOnUse" color-interpolation-filters="sRGB">
<feFlood flood-opacity="0" result="BackgroundImageFix"/>
<feBlend mode="normal" in="SourceGraphic" in2="BackgroundImageFix" result="shape"/>
<feGaussianBlur stdDeviation="2" result="effect1_foregroundBlur_9_156"/>
</filter>
<filter id="filter1_f_9_156" x="0.502075" y="0.0570374" width="81.7648" height="59.4185" filterUnits="userSpaceOnUse" color-interpolation-filters="sRGB">
<feFlood flood-opacity="0" result="BackgroundImageFix"/>
<feBlend mode="normal" in="SourceGraphic" in2="BackgroundImageFix" result="shape"/>
<feGaussianBlur stdDeviation="10" result="effect1_foregroundBlur_9_156"/>
</filter>
<filter id="filter2_d_9_156" x="3.67114" y="0.490936" width="178.867" height="105.868" filterUnits="userSpaceOnUse" color-interpolation-filters="sRGB">
<feFlood flood-opacity="0" result="BackgroundImageFix"/>
<feColorMatrix in="SourceAlpha" type="matrix" values="0 0 0 0 0 0 0 0 0 0 0 0 0 0 0 0 0 0 127 0" result="hardAlpha"/>
<feOffset dx="10" dy="2"/>
<feGaussianBlur stdDeviation="15"/>
<feColorMatrix type="matrix" values="0 0 0 0 0.501961 0 0 0 0 0.501961 0 0 0 0 0.501961 0 0 0 0.302 0"/>
<feBlend mode="normal" in2="BackgroundImageFix" result="effect1_dropShadow_9_156"/>
<feBlend mode="normal" in="SourceGraphic" in2="effect1_dropShadow_9_156" result="shape"/>
</filter>
<linearGradient id="paint0_linear_9_156" x1="83.1138" y1="28.4915" x2="97.5647" y2="85.1214" gradientUnits="userSpaceOnUse">
<stop stop-color="white" stop-opacity="0.604"/>
<stop offset="1" stop-color="white" stop-opacity="0.2"/>
</linearGradient>
</defs>
</svg>
